# xmcd
# Copyright (C) 1995-1998 Ti Kan
#
# Track frame offsets:
#       150
#       15983
#       35009
#       52696
#       70590
#       84091
#       100980
#       112818
#       130871
#       147333
#       166094
#       179913
#       198086
#       211671
#       225254
#       242157
#       262354
#       277846
#       293841
#       310145
#       330961
#
# Disc length: 4665 seconds
#
# Revision: 0
# Processed by: cddbd v1.5.2PL0 Copyright (c) Steve Scherf et al.
# Submitted via: CD-Transfer v1.0
#
DISCID=12123715
DTITLE=Various Pro Disc 90 - Pro Disc 90
DYEAR=08
DGENRE=
TTITLE0=Babyshambles You Talk
TTITLE1=Chris Brown Feat. T-Pain - Kiss Kiss
TTITLE2=Mutya Buena B Boy Baby
TTITLE3=Duran Duran Feat. Justin Timberlake and Timbaland Nite Runner
TTITLE4=Peter Gelderbloom Waiting 4
TTITLE5=Girls Aloud Call The Shots
TTITLE6=Hoosiers Worst Case Scenario
TTITLE7=Enrique Iglesias - Somebody's Me
TTITLE8=Liquid Gold Dance Yourself Dizzy
TTITLE9=Maximo Park - Karaoke Plays
TTITLE10=Mika Lollipop
TTITLE11=Roisin Murphy You Know Me Better
TTITLE12=Kate Nash Pumkin Soup
TTITLE13=Nelly What's Your Name
TTITLE14=Orson Broken Watch
TTITLE15=Rihanna Don't Stop The Music
TTITLE16=Robyn Me Mine
TTITLE17=Britney Spears Piece Of Me
TTITLE18=Stereophonics My Friends
TTITLE19=Joss Stone Baby, Baby, Baby
TTITLE20=The Twang Push The Ghosts
EXTD=
EXTT0=
EXTT1=
EXTT2=
EXTT3=
EXTT4=
EXTT5=
EXTT6=
EXTT7=
EXTT8=
EXTT9=
EXTT10=
EXTT11=
EXTT12=
EXTT13=
EXTT14=
EXTT15=
EXTT16=
EXTT17=
EXTT18=
EXTT19=
EXTT20=
PLAYORDER=
